<?xml version="1.0" encoding="UTF-8" standalone="no"?>
<svg
   xmlns:dc="http://purl.org/dc/elements/1.1/"
   xmlns:cc="http://creativecommons.org/ns#"
   xmlns:rdf="http://www.w3.org/1999/02/22-rdf-syntax-ns#"
   xmlns:svg="http://www.w3.org/2000/svg"
   xmlns="http://www.w3.org/2000/svg"
   xmlns:xlink="http://www.w3.org/1999/xlink"
   xmlns:sodipodi="http://sodipodi.sourceforge.net/DTD/sodipodi-0.dtd"
   xmlns:inkscape="http://www.inkscape.org/namespaces/inkscape"
   version="1.1"
   id="svg36"
   width="922.81689"
   height="659.15491"
   viewBox="0 0 922.81689 659.15491"
   sodipodi:docname="unnamed.svg"
   inkscape:version="1.0.2-2 (e86c870879, 2021-01-15)">

    <g
       id="g48">
      <path
         style="fill:#0190d3;stroke-width:3.38028"
         d="M 797.74647,656.78597 C 778.03642,653.40806 730.92712,625.52733 668.87296,580.51465 632.38688,554.04847 576.10519,513.66975 543.80254,490.78413 511.49986,467.89851 463.77464,433.98239 437.74647,415.41494 411.7183,396.84753 380.1626,374.5017 367.62263,365.75756 c -12.53993,-8.74412 -22.80754,-17.58139 -22.8169,-19.63836 -0.0101,-2.18042 10.14135,-4.68406 24.34421,-6.00409 28.13737,-2.61509 45.74194,-11.39886 64.53357,-32.19895 19.52816,-21.61534 30.82026,-41.36274 92.95849,-162.56405 19.53982,-38.11268 40.72022,-77.215274 47.06758,-86.894659 20.21071,-30.820399 43.79669,-47.276777 78.95057,-55.0853085 35.87868,-7.9695259 72.8879,10.1050775 99.38471,48.5375975 10.72685,15.558869 20.86692,41.561952 50.03483,128.3089 20.11984,59.83749 37.88369,113.35882 39.4752,118.93628 1.5915,5.57747 17.64682,53.4172 35.6785,106.31053 40.0852,117.58415 42.20322,125.56776 42.20322,159.07971 0,45.22353 -16.70755,76.29113 -48.06044,89.36801 -11.93682,4.97869 -52.17989,6.54886 -73.6297,2.8728 z M 37.807328,649.1225 C 13.11612,643.11821 0,622.09002 0,588.50855 0,563.27731 5.7985334,544.33056 74.588967,344.78872 c 15.061818,-43.69014 28.145383,-82.47887 29.074583,-86.19718 0.92921,-3.71831 2.95843,-9.80281 4.50938,-13.52112 1.55095,-3.71831 7.69742,-21.21127 13.65882,-38.87324 18.47874,-54.74745 37.88161,-81.8815 69.15416,-96.70906 26.51975,-12.574068 61.11605,-9.762468 96.6897,7.85785 20.06258,9.93739 154.99232,107.1024 155.06969,111.66811 0.0392,2.32394 -3.35094,4.24825 -7.53404,4.27624 -21.41415,0.14329 -56.38005,20.07423 -79.39446,45.2557 -21.03549,23.01615 -29.32137,34.43699 -125.31052,172.72157 -10.32414,14.87324 -29.39401,42.25352 -42.37749,60.84507 -12.98347,18.59155 -33.9656,49.01408 -46.62694,67.60563 -12.66134,18.59155 -26.96952,38.03551 -31.79596,43.20876 -20.873518,22.37351 -47.588925,32.10696 -71.898562,26.19545 z"
         id="path52" />
      <path
         style="fill:#6ea841;stroke-width:3.38028"
         d="M 37.807328,649.1225 C 13.11612,643.11821 0,622.09002 0,588.50855 0,563.27731 5.7985334,544.33056 74.588967,344.78872 c 15.061818,-43.69014 28.145383,-82.47887 29.074583,-86.19718 0.92921,-3.71831 2.95843,-9.80281 4.50938,-13.52112 1.55095,-3.71831 7.69742,-21.21127 13.65882,-38.87324 18.47874,-54.74745 37.88161,-81.8815 69.15416,-96.70906 26.51975,-12.574068 61.11605,-9.762468 96.6897,7.85785 20.06258,9.93739 154.99232,107.1024 155.06969,111.66811 0.0392,2.32394 -3.35094,4.24825 -7.53404,4.27624 -21.41415,0.14329 -56.38005,20.07423 -79.39446,45.2557 -21.03549,23.01615 -29.32137,34.43699 -125.31052,172.72157 -10.32414,14.87324 -29.39401,42.25352 -42.37749,60.84507 -12.98347,18.59155 -33.9656,49.01408 -46.62694,67.60563 -12.66134,18.59155 -26.96952,38.03551 -31.79596,43.20876 -20.873518,22.37351 -47.588925,32.10696 -71.898562,26.19545 z"
         id="path50" />

  </g>
</svg>
